<?xml version="1.0" encoding="utf-8"?>
<!DOCTYPE svg PUBLIC "-//W3C//DTD SVG 1.1//EN" "http://www.w3.org/Graphics/SVG/1.1/DTD/svg11.dtd">
<svg version="1.1" id="icon-slidset" xmlns="http://www.w3.org/2000/svg" xmlns:xlink="http://www.w3.org/1999/xlink" x="0px"
	 y="0px" width="40px" height="40px" viewBox="0 0 40 40" enable-background="new 0 0 40 40" xml:space="preserve">
<path id="svg_1" d="m1,5v24h12v-24h-12l0,0zm2,22v-20h8v20h-8l0,0z" fill="#575656"/>
  <path id="svg_2" d="m14,5v24h12v-24h-12l0,0zm2,22v-20h8v20h-8l0,0z" fill="#575656"/>
  <path id="svg_3" d="m27,5v24h12v-24h-12l0,0zm2,22v-20h8v20h-8l0,0z" fill="#575656"/>
  <circle id="svg_4" r="2" cy="36" cx="14" fill="#575656"/>
  <circle id="svg_5" r="2" cy="36" cx="20" fill="#575656"/>
  <circle id="svg_6" r="2" cy="36" cx="26" fill="#575656"/>
  <ellipse ry="8.22368" rx="8.22368" id="svg_7" cy="10.46053" cx="30.44408" stroke-width="2" stroke="#000000" fill="#ffffff"/>
  <line id="svg_8" y2="13.91447" x2="34.22697" y1="6.67763" x1="26.99013" stroke-linecap="null" stroke-linejoin="null" stroke-width="2" stroke="#000000" fill="none"/>
  <line transform="rotate(90 30.608552932739258,10.296053886413578) " id="svg_9" y2="13.91447" x2="34.22697" y1="6.67763" x1="26.99013" stroke-linecap="null" stroke-linejoin="null" stroke-width="2" stroke="#000000" fill="none"/>
 </svg>